<svg width="34" height="24" viewBox="0 0 34 24" fill="none" xmlns="http://www.w3.org/2000/svg">
<path d="M21.7742 11.6164C21.997 11.5151 22.421 11.3212 22.5259 10.9334C22.7269 10.2152 22.2418 9.68201 21.5862 9.35594C20.852 8.9858 20.109 8.62888 19.3704 8.26755C18.1292 7.65505 16.8924 7.04256 15.6512 6.43447C13.5666 5.41658 11.4863 4.39869 9.40159 3.3808C8.85966 3.11641 8.90337 3.14285 8.31774 2.86084C7.87196 3.76857 7.68403 4.2004 7.44366 4.86137C7.4087 4.95831 7.43492 5.16541 7.58788 5.24473C8.81159 5.89247 14.2309 8.68616 15.1137 9.15324C15.1049 9.17087 15.0394 9.30306 15.0306 9.32069C13.737 8.67294 11.0405 7.40829 9.65944 6.73851C9.33603 7.39948 9.27048 7.49642 9.03885 8.10451C8.92959 8.39974 9.05196 8.58481 9.34915 8.72582C10.586 9.30306 14.8558 11.2727 15.3453 11.5195C15.3366 11.5371 15.2929 11.6429 15.2841 11.6693C13.9381 11.1097 12.0632 10.3474 10.669 9.76574C10.4854 10.2196 10.3937 10.4884 10.1883 11.2066C10.1402 11.3653 10.162 11.4887 10.3937 11.5724C11.8665 12.1144 13.3393 12.6696 14.8165 13.216C15.4284 13.4407 16.1145 13.6434 16.7569 13.8858C16.7438 13.8946 20.8695 12.0351 21.7785 11.6208L21.7742 11.6164Z" fill="black"/>
<path d="M30.8339 21.4077C30.2177 21.5839 29.3961 21.0684 28.7493 21.0684C30.0385 19.4777 30.2658 18.0764 29.8069 16.4945C29.3349 14.8641 29.4922 12.9958 30.4319 11.5417C31.9003 12.0572 32.9885 11.4447 33.6572 9.61163C32.7962 8.69509 32.1319 7.40401 31.0918 7.00742C30.0211 6.59763 29.619 6.14817 28.6837 6.21427C28.994 5.49602 28.9022 5.17875 28.9022 4.95402C28.9022 3.92291 28.1505 3.41177 28.1636 2.93587C28.1855 1.75054 28.4302 1.45531 29.1601 0.468262C28.4259 1.0411 28.0675 1.34514 27.9276 2.87859C27.932 3.15179 27.0405 4.78217 27.5693 5.85294C27.8927 6.50509 27.259 6.31561 26.8219 7.30266C26.398 8.25885 25.5458 9.01236 24.9733 9.91127C23.9113 11.5769 22.5827 12.8768 20.5504 13.0531C18.2166 13.2558 15.8697 13.4012 13.5272 13.3835C9.69876 13.3571 7.14209 15.1593 6.20246 18.9136C6.04075 19.5482 5.82223 20.3634 5.64305 20.923C5.01371 22.3154 2.46141 22.3595 1.54363 21.6324C1.44748 21.5443 1.30325 21.4341 1.21148 21.3416C0.590882 20.9847 0.197547 21.7294 0.5734 22.1612C0.91429 22.5578 1.40377 22.8618 2.10303 22.9632C3.26993 23.1306 7.0809 23.4479 9.86047 23.4346C10.8962 23.4302 12.1374 23.4567 13.1732 23.4082C13.6015 23.3862 14.3532 23.2848 14.6154 23.232C15.7692 22.994 16.0096 22.8442 17.5086 22.7032C19.7944 22.4917 21.8659 23.157 24.1604 23.2011C26.8132 23.2584 29.4704 23.395 32.1145 23.1879C32.9055 23.1262 33.2595 23.1174 33.6878 22.8794C32.9973 21.0243 32.8181 20.8348 30.8252 21.4033H30.8339V21.4077Z" fill="black"/>
</svg>
